<svg width="90" height="126" viewBox="0 0 90 126" fill="none" xmlns="http://www.w3.org/2000/svg">
<path d="M13.596 38.043L0 125.439H71.859L81.958 38.043H13.596Z" fill="#EF8067"/>
<path d="M71.8589 125.439H89.7239L81.9579 38.043L71.8589 125.439Z" fill="#EF8067"/>
<path d="M71.8589 125.439L80.7919 114.951L81.9579 38.043L71.8589 125.439Z" fill="#E54C3C"/>
<path d="M89.724 125.439L80.792 114.951L81.958 38.043L89.724 125.439Z" fill="#EA6D59"/>
<path d="M59.4188 41.009L57.1068 40.711C57.1378 40.459 60.2468 15.424 52.0738 6.13399C50.0968 3.88599 47.6758 2.79399 44.6678 2.79399C41.6628 2.79399 39.2398 3.88599 37.2608 6.13499C29.0858 15.433 32.1968 40.459 32.2308 40.711L29.9188 41.009C29.7798 39.938 26.6468 14.676 35.5128 4.59699C37.9248 1.85499 41.0038 0.463989 44.6678 0.463989C48.3328 0.463989 51.4118 1.85499 53.8238 4.59699C62.6918 14.677 59.5548 39.939 59.4188 41.009Z" fill="#876B66"/>
<path d="M31.2928 39.014C29.4538 39.014 27.9668 40.504 27.9668 42.341C27.9668 44.177 29.4538 45.667 31.2928 45.667C33.1268 45.667 34.6168 44.178 34.6168 42.341C34.6168 40.504 33.1268 39.014 31.2928 39.014ZM31.2928 43.92C30.4198 43.92 29.7138 43.213 29.7138 42.341C29.7138 41.469 30.4198 40.763 31.2928 40.763C32.1618 40.763 32.8698 41.469 32.8698 42.341C32.8698 43.213 32.1618 43.92 31.2928 43.92Z" fill="#876B66"/>
<path d="M58.2411 39.014C56.4011 39.014 54.9121 40.504 54.9121 42.341C54.9121 44.177 56.4011 45.667 58.2411 45.667C60.0741 45.667 61.5651 44.178 61.5651 42.341C61.5651 40.504 60.0741 39.014 58.2411 39.014ZM58.2411 43.92C57.3661 43.92 56.6601 43.213 56.6601 42.341C56.6601 41.469 57.3661 40.763 58.2411 40.763C59.1091 40.763 59.8161 41.469 59.8161 42.341C59.8161 43.213 59.1091 43.92 58.2411 43.92Z" fill="#876B66"/>
</svg>
